<?xml version="1.0" standalone="no"?><!DOCTYPE svg PUBLIC "-//W3C//DTD SVG 1.1//EN" "http://www.w3.org/Graphics/SVG/1.1/DTD/svg11.dtd"><svg t="1692623471409" class="icon" viewBox="0 0 1024 1024" version="1.1" xmlns="http://www.w3.org/2000/svg" p-id="6278" width="128" height="128" xmlns:xlink="http://www.w3.org/1999/xlink"><path d="M628.01427 125.801171c-2.312672 26.25906-16.610306 47.514153-23.671119 56.564273-13.511735 17.336854-33.846876 30.103622-53.725622 34.441417 1.865487-26.391067 18.569938-48.873104 24.449855-56.018851C588.064396 145.086399 608.408747 131.955334 628.01427 125.801171L628.01427 125.801171zM680.887478 330.603627c40.271192 0 69.15094 8.970302 103.062284 41.282219-54.171784 41.389666-76.458369 114.270557-71.53729 184.253444 5.081739 72.621994 42.207287 147.851373 104.108103 181.330882-12.411681 26.452465-18.438954 36.84721-36.924981 64.883753-32.205493 49.197492-68.601424 99.272981-114.462938 99.740632l-0.801249 0c-18.379603 0-30.125111-5.39487-46.3834-12.836353-20.973684-9.616008-47.110971-21.594831-91.118254-21.594831l-1.334391 0c-44.268226 0.265036-70.862931 12.104689-92.234681 21.629623-16.72901 7.457856-28.822442 12.850679-47.409776 12.850679l-1.136893 0c-47.174416-0.356111-88.069825-53.506635-118.434389-99.785657-96.060823-146.272411-95.90835-305.381176-47.009663-380.786563 36.523845-56.087413 93.677543-90.909499 149.141762-90.909499 28.841885 0 52.252061 8.343015 77.054957 17.178241 24.484647 8.715499 49.803289 17.744129 79.434144 17.744129 28.110221 0 50.741661-8.555863 72.623018-16.826224 23.592324-8.924253 48.02069-18.154475 83.365686-18.154475L680.887478 330.603627zM680.893618 61.494563c-48.249911 3.269463-104.547101 34.014698-137.524167 73.884754-29.903054 36.346813-54.594409 90.173742-44.907793 142.480039 1.277086 0.045025 2.526543 0.057305 3.789303 0.057305 51.361785 0 103.963817-30.838356 134.830825-70.441329 29.589922-37.904285 51.965535-91.305519 43.812855-145.981792L680.893618 61.494563zM698.744171 272.016277c-81.283258 0-115.546619 38.566364-171.972746 38.566364-58.000995 0-102.195543-38.501896-172.520215-38.501896-69.034283 0-142.327566 41.900296-188.969862 113.541963-65.331961 100.752682-54.258765 290.248524 51.882648 451.871551 37.851073 57.70219 88.615247 122.713856 154.848741 123.230626 0.50142 0 0.984421 0 1.470491 0 57.815777 0 74.80573-37.546128 154.122193-38.019918 0.445138 0 0.858554 0 1.299599 0 78.304414 0 93.88732 37.95852 151.591557 37.95852 0.372483 0 0.74292 0 1.143033 0 66.288752-0.687662 119.788224-72.602551 157.581991-130.337487 27.28646-41.35385 37.419238-62.282508 58.57507-109.11207C744.366232 663.229307 719.613478 446.453145 871.499747 363.205139c-46.299489-57.778938-111.345947-91.189885-172.754552-91.189885L698.744171 272.016277" fill="#272536" p-id="6279"></path></svg>